<svg width="595" height="842" viewBox="0 0 595 842" fill="none" xmlns="http://www.w3.org/2000/svg">
<rect width="595" height="842" fill="white"/>
<g clip-path="url(#clip0_1_2)">
<path d="M180 10H25V165H180V10Z" fill="black"/>
<path d="M76.6667 35.8333H50.8333V61.6666H76.6667V35.8333Z" fill="white"/>
<path d="M141.25 35.8333H102.5V61.6666H141.25V35.8333Z" fill="white"/>
<path d="M154.167 35.8333H128.333V61.6666H154.167V35.8333Z" fill="white"/>
<path d="M154.167 35.8333H128.333V74.5833H154.167V35.8333Z" fill="white"/>
<path d="M102.5 61.6667H76.6667V87.5H102.5V61.6667Z" fill="white"/>
<path d="M154.167 61.6667H128.333V87.5H154.167V61.6667Z" fill="white"/>
<path d="M154.167 61.6667H128.333V100.417H154.167V61.6667Z" fill="white"/>
<path d="M141.25 87.5H102.5V113.333H141.25V87.5Z" fill="white"/>
<path d="M128.333 87.5H102.5V126.25H128.333V87.5Z" fill="white"/>
<path d="M154.167 87.5H128.333V113.333H154.167V87.5Z" fill="white"/>
<path d="M128.333 113.333H102.5V139.167H128.333V113.333Z" fill="white"/>
</g>
<g clip-path="url(#clip1_1_2)">
<path d="M180 175H25V330H180V175Z" fill="black"/>
<path d="M89.5833 226.667H50.8333V252.5H89.5833V226.667Z" fill="white"/>
<path d="M76.6667 226.667H50.8333V265.417H76.6667V226.667Z" fill="white"/>
<path d="M115.417 226.667H76.6667V252.5H115.417V226.667Z" fill="white"/>
<path d="M141.25 226.667H102.5V252.5H141.25V226.667Z" fill="white"/>
<path d="M154.167 226.667H128.333V252.5H154.167V226.667Z" fill="white"/>
<path d="M154.167 226.667H128.333V265.417H154.167V226.667Z" fill="white"/>
<path d="M76.6667 252.5H50.8333V278.333H76.6667V252.5Z" fill="white"/>
<path d="M76.6667 252.5H50.8333V291.25H76.6667V252.5Z" fill="white"/>
<path d="M154.167 252.5H128.333V278.333H154.167V252.5Z" fill="white"/>
<path d="M76.6667 278.333H50.8333V304.167H76.6667V278.333Z" fill="white"/>
<path d="M128.333 278.333H102.5V304.167H128.333V278.333Z" fill="white"/>
</g>
<g clip-path="url(#clip2_1_2)">
<path d="M180 340H25V495H180V340Z" fill="black"/>
<path d="M141.25 365.833H102.5V391.667H141.25V365.833Z" fill="white"/>
<path d="M128.333 365.833H102.5V404.583H128.333V365.833Z" fill="white"/>
<path d="M154.167 365.833H128.333V391.667H154.167V365.833Z" fill="white"/>
<path d="M154.167 365.833H128.333V404.583H154.167V365.833Z" fill="white"/>
<path d="M141.25 391.667H102.5V417.5H141.25V391.667Z" fill="white"/>
<path d="M128.333 391.667H102.5V430.417H128.333V391.667Z" fill="white"/>
<path d="M154.167 391.667H128.333V417.5H154.167V391.667Z" fill="white"/>
<path d="M128.333 417.5H102.5V443.333H128.333V417.5Z" fill="white"/>
<path d="M89.5833 443.333H50.8333V469.167H89.5833V443.333Z" fill="white"/>
<path d="M102.5 443.333H76.6667V469.167H102.5V443.333Z" fill="white"/>
<path d="M154.167 443.333H128.333V469.167H154.167V443.333Z" fill="white"/>
</g>
<g clip-path="url(#clip3_1_2)">
<path d="M180 505H25V660H180V505Z" fill="black"/>
<path d="M76.6667 530.833H50.8333V556.667H76.6667V530.833Z" fill="white"/>
<path d="M76.6667 530.833H50.8333V569.583H76.6667V530.833Z" fill="white"/>
<path d="M154.167 530.833H128.333V556.667H154.167V530.833Z" fill="white"/>
<path d="M154.167 530.833H128.333V569.583H154.167V530.833Z" fill="white"/>
<path d="M76.6667 556.667H50.8333V582.5H76.6667V556.667Z" fill="white"/>
<path d="M154.167 556.667H128.333V582.5H154.167V556.667Z" fill="white"/>
<path d="M102.5 582.5H76.6667V608.333H102.5V582.5Z" fill="white"/>
<path d="M102.5 582.5H76.6667V621.25H102.5V582.5Z" fill="white"/>
<path d="M115.417 608.333H76.6667V634.167H115.417V608.333Z" fill="white"/>
<path d="M128.333 608.333H102.5V634.167H128.333V608.333Z" fill="white"/>
</g>
<g clip-path="url(#clip4_1_2)">
<path d="M180 670H25V825H180V670Z" fill="black"/>
<path d="M102.5 695.833H76.6667V721.667H102.5V695.833Z" fill="white"/>
<path d="M102.5 695.833H76.6667V734.583H102.5V695.833Z" fill="white"/>
<path d="M154.167 695.833H128.333V721.667H154.167V695.833Z" fill="white"/>
<path d="M102.5 721.667H76.6667V747.5H102.5V721.667Z" fill="white"/>
<path d="M76.6667 747.5H50.8333V773.333H76.6667V747.5Z" fill="white"/>
<path d="M76.6667 747.5H50.8333V786.25H76.6667V747.5Z" fill="white"/>
<path d="M154.167 747.5H128.333V773.333H154.167V747.5Z" fill="white"/>
<path d="M89.5833 773.333H50.8333V799.167H89.5833V773.333Z" fill="white"/>
<path d="M115.417 773.333H76.6667V799.167H115.417V773.333Z" fill="white"/>
<path d="M128.333 773.333H102.5V799.167H128.333V773.333Z" fill="white"/>
</g>
<g clip-path="url(#clip5_1_2)">
<path d="M375 10H220V165H375V10Z" fill="black"/>
<path d="M310.417 35.8333H271.667V61.6666H310.417V35.8333Z" fill="white"/>
<path d="M336.25 35.8333H297.5V61.6666H336.25V35.8333Z" fill="white"/>
<path d="M349.167 35.8333H323.333V61.6666H349.167V35.8333Z" fill="white"/>
<path d="M349.167 35.8333H323.333V74.5833H349.167V35.8333Z" fill="white"/>
<path d="M271.667 61.6667H245.833V87.5H271.667V61.6667Z" fill="white"/>
<path d="M271.667 61.6667H245.833V100.417H271.667V61.6667Z" fill="white"/>
<path d="M349.167 61.6667H323.333V87.5H349.167V61.6667Z" fill="white"/>
<path d="M284.583 87.5H245.833V113.333H284.583V87.5Z" fill="white"/>
<path d="M271.667 87.5H245.833V126.25H271.667V87.5Z" fill="white"/>
<path d="M297.5 87.5H271.667V113.333H297.5V87.5Z" fill="white"/>
<path d="M297.5 87.5H271.667V126.25H297.5V87.5Z" fill="white"/>
<path d="M284.583 113.333H245.833V139.167H284.583V113.333Z" fill="white"/>
<path d="M297.5 113.333H271.667V139.167H297.5V113.333Z" fill="white"/>
<path d="M349.167 113.333H323.333V139.167H349.167V113.333Z" fill="white"/>
</g>
<g clip-path="url(#clip6_1_2)">
<path d="M375 175H220V330H375V175Z" fill="black"/>
<path d="M271.667 200.833H245.833V226.667H271.667V200.833Z" fill="white"/>
<path d="M271.667 200.833H245.833V239.583H271.667V200.833Z" fill="white"/>
<path d="M349.167 200.833H323.333V226.667H349.167V200.833Z" fill="white"/>
<path d="M284.583 226.667H245.833V252.5H284.583V226.667Z" fill="white"/>
<path d="M310.417 226.667H271.667V252.5H310.417V226.667Z" fill="white"/>
<path d="M323.333 226.667H297.5V252.5H323.333V226.667Z" fill="white"/>
<path d="M323.333 226.667H297.5V265.417H323.333V226.667Z" fill="white"/>
<path d="M323.333 252.5H297.5V278.333H323.333V252.5Z" fill="white"/>
<path d="M323.333 252.5H297.5V291.25H323.333V252.5Z" fill="white"/>
<path d="M284.583 278.333H245.833V304.167H284.583V278.333Z" fill="white"/>
<path d="M310.417 278.333H271.667V304.167H310.417V278.333Z" fill="white"/>
<path d="M323.333 278.333H297.5V304.167H323.333V278.333Z" fill="white"/>
</g>
<g clip-path="url(#clip7_1_2)">
<path d="M375 340H220V495H375V340Z" fill="black"/>
<path d="M284.583 365.833H245.833V391.667H284.583V365.833Z" fill="white"/>
<path d="M297.5 365.833H271.667V391.667H297.5V365.833Z" fill="white"/>
<path d="M297.5 365.833H271.667V404.583H297.5V365.833Z" fill="white"/>
<path d="M297.5 391.667H271.667V417.5H297.5V391.667Z" fill="white"/>
<path d="M297.5 391.667H271.667V430.417H297.5V391.667Z" fill="white"/>
<path d="M284.583 417.5H245.833V443.333H284.583V417.5Z" fill="white"/>
<path d="M310.417 417.5H271.667V443.333H310.417V417.5Z" fill="white"/>
<path d="M336.25 417.5H297.5V443.333H336.25V417.5Z" fill="white"/>
<path d="M323.333 417.5H297.5V456.25H323.333V417.5Z" fill="white"/>
<path d="M349.167 417.5H323.333V443.333H349.167V417.5Z" fill="white"/>
<path d="M323.333 443.333H297.5V469.167H323.333V443.333Z" fill="white"/>
</g>
<g clip-path="url(#clip8_1_2)">
<path d="M375 505H220V660H375V505Z" fill="black"/>
<path d="M284.583 530.833H245.833V556.667H284.583V530.833Z" fill="white"/>
<path d="M271.667 530.833H245.833V569.583H271.667V530.833Z" fill="white"/>
<path d="M310.417 530.833H271.667V556.667H310.417V530.833Z" fill="white"/>
<path d="M297.5 530.833H271.667V569.583H297.5V530.833Z" fill="white"/>
<path d="M336.25 530.833H297.5V556.667H336.25V530.833Z" fill="white"/>
<path d="M323.333 530.833H297.5V569.583H323.333V530.833Z" fill="white"/>
<path d="M349.167 530.833H323.333V556.667H349.167V530.833Z" fill="white"/>
<path d="M284.583 556.667H245.833V582.5H284.583V556.667Z" fill="white"/>
<path d="M271.667 556.667H245.833V595.417H271.667V556.667Z" fill="white"/>
<path d="M310.417 556.667H271.667V582.5H310.417V556.667Z" fill="white"/>
<path d="M297.5 556.667H271.667V595.417H297.5V556.667Z" fill="white"/>
<path d="M323.333 556.667H297.5V582.5H323.333V556.667Z" fill="white"/>
<path d="M284.583 582.5H245.833V608.333H284.583V582.5Z" fill="white"/>
<path d="M271.667 582.5H245.833V621.25H271.667V582.5Z" fill="white"/>
<path d="M297.5 582.5H271.667V608.333H297.5V582.5Z" fill="white"/>
<path d="M349.167 582.5H323.333V608.333H349.167V582.5Z" fill="white"/>
<path d="M271.667 608.333H245.833V634.167H271.667V608.333Z" fill="white"/>
<path d="M323.333 608.333H297.5V634.167H323.333V608.333Z" fill="white"/>
</g>
<g clip-path="url(#clip9_1_2)">
<path d="M375 670H220V825H375V670Z" fill="black"/>
<path d="M284.583 695.833H245.833V721.667H284.583V695.833Z" fill="white"/>
<path d="M271.667 695.833H245.833V734.583H271.667V695.833Z" fill="white"/>
<path d="M297.5 695.833H271.667V721.667H297.5V695.833Z" fill="white"/>
<path d="M297.5 695.833H271.667V734.583H297.5V695.833Z" fill="white"/>
<path d="M284.583 721.667H245.833V747.5H284.583V721.667Z" fill="white"/>
<path d="M310.417 721.667H271.667V747.5H310.417V721.667Z" fill="white"/>
<path d="M297.5 721.667H271.667V760.417H297.5V721.667Z" fill="white"/>
<path d="M336.25 721.667H297.5V747.5H336.25V721.667Z" fill="white"/>
<path d="M349.167 721.667H323.333V747.5H349.167V721.667Z" fill="white"/>
<path d="M349.167 721.667H323.333V760.417H349.167V721.667Z" fill="white"/>
<path d="M297.5 747.5H271.667V773.333H297.5V747.5Z" fill="white"/>
<path d="M297.5 747.5H271.667V786.25H297.5V747.5Z" fill="white"/>
<path d="M349.167 747.5H323.333V773.333H349.167V747.5Z" fill="white"/>
<path d="M310.417 773.333H271.667V799.167H310.417V773.333Z" fill="white"/>
<path d="M323.333 773.333H297.5V799.167H323.333V773.333Z" fill="white"/>
</g>
<g clip-path="url(#clip10_1_2)">
<path d="M570 10H415V165H570V10Z" fill="black"/>
<path d="M479.583 35.8333H440.833V61.6667H479.583V35.8333Z" fill="white"/>
<path d="M466.667 35.8333H440.833V74.5833H466.667V35.8333Z" fill="white"/>
<path d="M505.417 35.8333H466.667V61.6667H505.417V35.8333Z" fill="white"/>
<path d="M531.25 35.8333H492.5V61.6667H531.25V35.8333Z" fill="white"/>
<path d="M544.167 35.8333H518.333V61.6667H544.167V35.8333Z" fill="white"/>
<path d="M544.167 35.8333H518.333V74.5833H544.167V35.8333Z" fill="white"/>
<path d="M466.667 61.6667H440.833V87.5H466.667V61.6667Z" fill="white"/>
<path d="M466.667 61.6667H440.833V100.417H466.667V61.6667Z" fill="white"/>
<path d="M544.167 61.6667H518.333V87.5H544.167V61.6667Z" fill="white"/>
<path d="M544.167 61.6667H518.333V100.417H544.167V61.6667Z" fill="white"/>
<path d="M466.667 87.5H440.833V113.333H466.667V87.5Z" fill="white"/>
<path d="M544.167 87.5H518.333V113.333H544.167V87.5Z" fill="white"/>
<path d="M544.167 87.5H518.333V126.25H544.167V87.5Z" fill="white"/>
<path d="M544.167 113.333H518.333V139.167H544.167V113.333Z" fill="white"/>
</g>
<g clip-path="url(#clip11_1_2)">
<path d="M570 175H415V330H570V175Z" fill="black"/>
<path d="M544.167 200.833H518.333V226.667H544.167V200.833Z" fill="white"/>
<path d="M544.167 200.833H518.333V239.583H544.167V200.833Z" fill="white"/>
<path d="M544.167 226.667H518.333V252.5H544.167V226.667Z" fill="white"/>
<path d="M466.667 252.5H440.833V278.333H466.667V252.5Z" fill="white"/>
<path d="M518.333 252.5H492.5V278.333H518.333V252.5Z" fill="white"/>
<path d="M518.333 252.5H492.5V291.25H518.333V252.5Z" fill="white"/>
<path d="M505.417 278.333H466.667V304.167H505.417V278.333Z" fill="white"/>
<path d="M531.25 278.333H492.5V304.167H531.25V278.333Z" fill="white"/>
<path d="M544.167 278.333H518.333V304.167H544.167V278.333Z" fill="white"/>
</g>
<g clip-path="url(#clip12_1_2)">
<path d="M570 340H415V495H570V340Z" fill="black"/>
<path d="M479.583 391.667H440.833V417.5H479.583V391.667Z" fill="white"/>
<path d="M466.667 391.667H440.833V430.417H466.667V391.667Z" fill="white"/>
<path d="M505.417 391.667H466.667V417.5H505.417V391.667Z" fill="white"/>
<path d="M518.333 391.667H492.5V417.5H518.333V391.667Z" fill="white"/>
<path d="M518.333 391.667H492.5V430.417H518.333V391.667Z" fill="white"/>
<path d="M466.667 417.5H440.833V443.333H466.667V417.5Z" fill="white"/>
<path d="M531.25 417.5H492.5V443.333H531.25V417.5Z" fill="white"/>
<path d="M518.333 417.5H492.5V456.25H518.333V417.5Z" fill="white"/>
<path d="M544.167 417.5H518.333V443.333H544.167V417.5Z" fill="white"/>
<path d="M544.167 417.5H518.333V456.25H544.167V417.5Z" fill="white"/>
<path d="M505.417 443.333H466.667V469.167H505.417V443.333Z" fill="white"/>
<path d="M531.25 443.333H492.5V469.167H531.25V443.333Z" fill="white"/>
<path d="M544.167 443.333H518.333V469.167H544.167V443.333Z" fill="white"/>
</g>
<g clip-path="url(#clip13_1_2)">
<path d="M570 505H415V660H570V505Z" fill="black"/>
<path d="M518.333 530.833H492.5V556.667H518.333V530.833Z" fill="white"/>
<path d="M518.333 530.833H492.5V569.583H518.333V530.833Z" fill="white"/>
<path d="M466.667 556.667H440.833V582.5H466.667V556.667Z" fill="white"/>
<path d="M518.333 556.667H492.5V582.5H518.333V556.667Z" fill="white"/>
<path d="M479.583 608.333H440.833V634.167H479.583V608.333Z" fill="white"/>
<path d="M505.417 608.333H466.667V634.167H505.417V608.333Z" fill="white"/>
<path d="M531.25 608.333H492.5V634.167H531.25V608.333Z" fill="white"/>
<path d="M544.167 608.333H518.333V634.167H544.167V608.333Z" fill="white"/>
</g>
<g clip-path="url(#clip14_1_2)">
<path d="M570 670H415V825H570V670Z" fill="black"/>
<path d="M518.333 695.833H492.5V721.667H518.333V695.833Z" fill="white"/>
<path d="M492.5 721.667H466.667V747.5H492.5V721.667Z" fill="white"/>
<path d="M466.667 747.5H440.833V773.333H466.667V747.5Z" fill="white"/>
<path d="M531.25 747.5H492.5V773.333H531.25V747.5Z" fill="white"/>
<path d="M544.167 747.5H518.333V773.333H544.167V747.5Z" fill="white"/>
<path d="M544.167 747.5H518.333V786.25H544.167V747.5Z" fill="white"/>
<path d="M544.167 773.333H518.333V799.167H544.167V773.333Z" fill="white"/>
</g>
<defs>
<clipPath id="clip0_1_2">
<rect width="155" height="155" fill="white" transform="translate(25 10)"/>
</clipPath>
<clipPath id="clip1_1_2">
<rect width="155" height="155" fill="white" transform="translate(25 175)"/>
</clipPath>
<clipPath id="clip2_1_2">
<rect width="155" height="155" fill="white" transform="translate(25 340)"/>
</clipPath>
<clipPath id="clip3_1_2">
<rect width="155" height="155" fill="white" transform="translate(25 505)"/>
</clipPath>
<clipPath id="clip4_1_2">
<rect width="155" height="155" fill="white" transform="translate(25 670)"/>
</clipPath>
<clipPath id="clip5_1_2">
<rect width="155" height="155" fill="white" transform="translate(220 10)"/>
</clipPath>
<clipPath id="clip6_1_2">
<rect width="155" height="155" fill="white" transform="translate(220 175)"/>
</clipPath>
<clipPath id="clip7_1_2">
<rect width="155" height="155" fill="white" transform="translate(220 340)"/>
</clipPath>
<clipPath id="clip8_1_2">
<rect width="155" height="155" fill="white" transform="translate(220 505)"/>
</clipPath>
<clipPath id="clip9_1_2">
<rect width="155" height="155" fill="white" transform="translate(220 670)"/>
</clipPath>
<clipPath id="clip10_1_2">
<rect width="155" height="155" fill="white" transform="translate(415 10)"/>
</clipPath>
<clipPath id="clip11_1_2">
<rect width="155" height="155" fill="white" transform="translate(415 175)"/>
</clipPath>
<clipPath id="clip12_1_2">
<rect width="155" height="155" fill="white" transform="translate(415 340)"/>
</clipPath>
<clipPath id="clip13_1_2">
<rect width="155" height="155" fill="white" transform="translate(415 505)"/>
</clipPath>
<clipPath id="clip14_1_2">
<rect width="155" height="155" fill="white" transform="translate(415 670)"/>
</clipPath>
</defs>
</svg>
